<svg width="256" height="256" viewBox="0 0 256 256" fill="none" xmlns="http://www.w3.org/2000/svg">
<rect width="256" height="256" fill="white"/>
<path d="M181.455 161.443C174.25 167.927 163.443 171.53 146.871 172.25C143.989 172.25 141.107 173.691 139.666 176.573L130.299 190.983C129.579 192.424 128.138 192.424 127.417 190.983L118.051 176.573C116.61 174.412 113.728 172.971 110.846 172.25C94.2741 170.809 83.4665 167.927 76.2614 161.443C64.0128 151.356 64.0128 134.063 64.0128 117.492C64.0128 100.92 64.0128 84.3485 76.2614 73.5409C88.51 62.7333 108.684 62.0128 128.858 62.0128C149.033 62.0128 169.207 62.7333 181.455 73.5409C193.704 83.628 193.704 100.92 193.704 117.492C193.704 134.063 193.704 150.635 181.455 161.443Z" fill="#E2E7FF"/>
<path d="M193.704 59.8511C176.412 44.7205 151.194 44 128.858 44C106.523 44 81.3048 44.7205 64.0127 59.8511C46 75.7023 46 98.7585 46 117.492C46 136.225 46 159.281 64.0127 175.132C74.8203 184.499 89.2304 188.101 100.759 189.542C103.641 189.542 105.802 191.704 107.243 193.865L113.728 203.232C117.33 208.276 123.094 211.878 128.858 211.878C135.343 211.878 141.107 208.996 143.989 203.232L149.753 193.865C151.194 191.704 153.356 190.263 156.238 189.542C167.766 188.101 182.176 184.499 192.983 175.132C210.996 159.281 210.996 136.225 210.996 117.492C210.996 98.7585 211.717 75.7023 193.704 59.8511ZM181.455 161.443C174.25 167.927 163.443 171.53 146.871 172.25C143.989 172.25 141.107 173.691 139.666 176.573L130.299 190.983C129.579 192.424 128.138 192.424 127.417 190.983L118.051 176.573C116.61 174.412 113.728 172.971 110.846 172.25C94.274 170.809 83.4664 167.927 76.2613 161.443C64.0127 151.356 64.0127 134.063 64.0127 117.492C64.0127 100.92 64.0127 84.3484 76.2613 73.5408C88.5099 62.7332 108.684 62.0127 128.858 62.0127C149.032 62.0127 169.207 62.7332 181.455 73.5408C193.704 83.6279 193.704 100.92 193.704 117.492C193.704 134.063 193.704 150.635 181.455 161.443Z" fill="#3B5BFD"/>
<path d="M135.343 92.2741C131.74 88.6716 125.976 88.6716 122.374 92.2741L94.9946 119.653C91.392 123.256 91.392 129.02 94.9946 132.622C98.5971 136.225 104.361 136.225 107.964 132.622L128.858 111.728L149.753 132.622C151.915 134.784 154.076 135.505 156.238 135.505C158.399 135.505 161.281 134.784 162.722 132.622C166.325 129.02 166.325 123.256 162.722 119.653L135.343 92.2741Z" fill="#3B5BFD"/>
</svg>
